<svg width="59" height="46" viewBox="0 0 59 46" fill="none" xmlns="http://www.w3.org/2000/svg">
<path d="M52.787 8.65004H29.4998L25.4062 2.596C24.3266 0.999122 22.5092 0.0400391 20.5629 0.0400391H6.21179C4.6674 0.0400391 3.18708 0.644595 2.0949 1.72127C1.00286 2.7974 0.389648 4.25754 0.389648 5.78018V40.2196C0.389648 41.7423 1.00284 43.2023 2.0949 44.2785C3.18694 45.3552 4.6674 45.9598 6.21179 45.9598H52.7875C54.3319 45.9598 55.8128 45.3552 56.9044 44.2785C57.9964 43.2024 58.6097 41.7423 58.6097 40.2196V14.3894C58.6097 12.8667 57.9965 11.4067 56.9044 10.3304C55.8129 9.25379 54.3319 8.64922 52.7875 8.64922L52.787 8.65004ZM38.6577 30.7383L30.528 38.754C30.255 39.0232 29.8845 39.1743 29.4988 39.1743C29.1126 39.1743 28.7421 39.0232 28.4691 38.754L20.3394 30.7383C19.9229 30.3282 19.7983 29.7108 20.0236 29.1741C20.249 28.6379 20.7798 28.2887 21.3687 28.2887H25.8598C26.246 28.2887 26.616 28.1375 26.889 27.8683C27.162 27.5992 27.3153 27.2339 27.3153 26.8536V17.5872C27.3153 16.8182 27.7313 16.108 28.4068 15.7234C29.0823 15.3388 29.9149 15.3388 30.5904 15.7234C31.2658 16.1079 31.6819 16.8182 31.6819 17.5872V26.8536C31.6819 27.2339 31.8352 27.5992 32.1082 27.8683C32.3812 28.1375 32.7511 28.2887 33.1374 28.2887H37.6285C38.2174 28.2887 38.7482 28.6379 38.9735 29.1741C39.1989 29.7109 39.0742 30.3282 38.6577 30.7383Z" fill="black"/>
</svg>
